<svg id="Capa_1" enable-background="new 0 0 512.001 512.001" height="512" viewBox="0 0 512.001 512.001" width="512" xmlns="http://www.w3.org/2000/svg"><g><path d="m368.106 19v30c0 4.971 4.029 9 9 9h42.954l-50.457 50.457-31.257-31.257c-3.515-3.515-9.213-3.515-12.728 0l-21.213 21.213c-3.515 3.515-3.515 9.213 0 12.728l31.257 31.257-29.697 29.697c-30.544-23.494-68.635-37.638-109.956-38.083-99.993-1.077-184.635 81.459-185.991 181.448-1.403 103.465 83.058 187.926 186.523 186.523 99.99-1.356 182.525-85.999 181.449-185.992-.445-41.322-14.589-79.412-38.083-109.956l29.697-29.697 31.257 31.257c3.515 3.515 9.213 3.515 12.728 0l21.213-21.213c3.515-3.515 3.515-9.213 0-12.728l-31.257-31.257 50.455-50.455v42.952c0 4.971 4.029 9 9 9h30c4.971 0 9-4.029 9-9v-124.894h-124.894c-4.971 0-9 4.029-9 9zm-174.106 435c-74.99 0-136-61.01-136-136s61.01-136 136-136 136 61.01 136 136-61.009 136-136 136z" fill="#fff3da"/><g fill="#ffa96b"><path d="m194 172.001c-80.505 0-146 65.495-146 146s65.495 146 146 146 146-65.495 146-146-65.495-146-146-146zm0 272c-69.477 0-126-56.523-126-126s56.523-126 126-126 126 56.523 126 126-56.523 126-126 126z"/><path d="m502 0h-124.894c-10.477 0-19 8.523-19 19v30c0 10.477 8.523 19 19 19h18.812l-26.314 26.313-24.185-24.186c-7.408-7.408-19.463-7.408-26.871 0l-21.213 21.214c-3.588 3.589-5.564 8.36-5.564 13.435s1.977 9.847 5.564 13.436l24.186 24.186-16.557 16.557c-32.053-22.468-69.499-34.519-108.847-34.941-51.039-.586-99.71 19.22-137.075 55.665-37.37 36.451-58.332 84.624-59.023 135.645-.716 52.763 19.479 102.409 56.864 139.795 36.746 36.745 85.33 56.884 137.083 56.882.899 0 1.809-.006 2.71-.019 51.021-.692 99.195-21.653 135.647-59.023 36.445-37.364 56.215-86.045 55.665-137.074-.423-39.348-12.474-76.795-34.941-108.848l16.556-16.556 24.186 24.186c3.589 3.588 8.36 5.564 13.436 5.564s9.847-1.977 13.436-5.564l21.213-21.214c7.408-7.408 7.408-19.462 0-26.87l-24.186-24.186 26.312-26.313v18.811c0 10.477 8.523 19 19 19h30c10.477 0 19-8.523 19-19v-124.895c0-5.522-4.477-10-10-10zm-10 133.895h-28v-41.953c0-4.045-2.437-7.691-6.173-9.238-3.733-1.548-8.038-.693-10.898 2.167l-50.456 50.455c-1.875 1.876-2.929 4.419-2.929 7.071s1.054 5.195 2.929 7.071l30.55 30.549-19.799 19.8-30.55-30.55c-1.876-1.875-4.419-2.929-7.071-2.929s-5.196 1.054-7.071 2.929l-29.696 29.697c-3.552 3.552-3.917 9.187-.855 13.168 23.15 30.097 35.603 66.048 36.011 103.967.491 45.701-17.26 89.346-49.984 122.894-32.728 33.552-75.913 52.371-121.602 52.991-47.268.631-91.845-17.472-125.38-51.008-33.534-33.535-51.649-78.062-51.008-125.381.619-45.688 19.438-88.874 52.99-121.601 33.096-32.283 76.017-49.994 121.045-49.994.615 0 1.233.004 1.85.01 37.919.408 73.87 12.86 103.967 36.011 3.979 3.061 9.616 2.695 13.168-.855l29.696-29.697c3.905-3.905 3.905-10.237 0-14.143l-30.549-30.55 19.799-19.799 30.549 30.55c1.875 1.875 4.419 2.929 7.071 2.929s5.195-1.054 7.071-2.929l50.457-50.456c2.859-2.86 3.715-7.161 2.168-10.898-1.549-3.736-5.195-6.173-9.24-6.173h-41.954v-28l113.894.001z"/></g></g></svg>